Monda-Regular-Italic.ufo
<glyph name="numbersign" format="1">
  <advance width="1284"/>
  <unicode hex="0023"/>
  <outline>
    <contour>
      <point x="65" y="0" type="line"/>
      <point x="243" y="0" type="line"/>
      <point x="403" y="475" type="line"/>
      <point x="701" y="475" type="line"/>
      <point x="538" y="0" type="line"/>
      <point x="716" y="0" type="line"/>
      <point x="876" y="475" type="line"/>
      <point x="1135" y="475" type="line"/>
      <point x="1154" y="594" type="line"/>
      <point x="916" y="594" type="line"/>
      <point x="1022" y="910" type="line"/>
      <point x="1228" y="910" type="line"/>
      <point x="1246" y="1029" type="line"/>
      <point x="1061" y="1029" type="line"/>
      <point x="1202" y="1446" type="line"/>
      <point x="1032" y="1446" type="line"/>
      <point x="889" y="1029" type="line"/>
      <point x="588" y="1029" type="line"/>
      <point x="729" y="1446" type="line"/>
      <point x="559" y="1446" type="line"/>
      <point x="416" y="1029" type="line"/>
      <point x="158" y="1029" type="line"/>
      <point x="140" y="910" type="line"/>
      <point x="376" y="910" type="line"/>
      <point x="269" y="594" type="line"/>
      <point x="66" y="594" type="line"/>
      <point x="47" y="475" type="line"/>
      <point x="228" y="475" type="line"/>
    </contour>
    <contour>
      <point x="443" y="594" type="line"/>
      <point x="549" y="910" type="line"/>
      <point x="849" y="910" type="line"/>
      <point x="742" y="594" type="line"/>
    </contour>
  </outline>
</glyph>
<glyph name="dollar" format="1">
  <advance width="1303"/>
  <unicode hex="0024"/>
  <outline>
    <contour>
      <point x="451" y="-372" type="line"/>
      <point x="561" y="-372" type="line"/>
      <point x="899" y="1758" type="line"/>
      <point x="789" y="1758" type="line"/>
    </contour>
    <component base="S"/>
  </outline>
</glyph>
<glyph name="parenright" format="1">
  <advance width="768"/>
  <unicode hex="0029"/>
  <outline>
    <contour>
      <point x="-12" y="-150" type="line"/>
      <point x="458" y="-150"/>
      <point x="508" y="152"/>
      <point x="556" y="458" type="curve" smooth="yes"/>
      <point x="639" y="977" type="line" smooth="yes"/>
      <point x="686" y="1278"/>
      <point x="730" y="1567"/>
      <point x="260" y="1567" type="curve"/>
      <point x="236" y="1417" type="line"/>
      <point x="514" y="1417"/>
      <point x="492" y="1264"/>
      <point x="451" y="1008" type="curve" smooth="yes"/>
      <point x="358" y="421" type="line" smooth="yes"/>
      <point x="318" y="164"/>
      <point x="290" y="1"/>
      <point x="12" y="1" type="curve"/>
    </contour>
  </outline>
</glyph>
<glyph name="slash" format="1">
  <advance width="768"/>
  <unicode hex="002F"/>
  <outline>
    <contour>
      <point x="-55" y="0" type="line"/>
      <point x="132" y="0" type="line"/>
      <point x="823" y="1506" type="line"/>
      <point x="640" y="1506" type="line"/>
    </contour>
  </outline>
</glyph>
<glyph name="zero" format="1">
  <advance width="1250"/>
  <unicode hex="0030"/>
  <outline>
    <contour>
      <point x="542" y="140" type="curve" smooth="yes"/>
      <point x="256" y="140"/>
      <point x="277" y="363"/>
      <point x="318" y="619" type="curve" smooth="yes"/>
      <point x="349" y="816" type="line" smooth="yes"/>
      <point x="389" y="1073"/>
      <point x="442" y="1306"/>
      <point x="726" y="1306" type="curve" smooth="yes"/>
      <point x="1010" y="1306"/>
      <point x="989" y="1073"/>
      <point x="949" y="816" type="curve" smooth="yes"/>
      <point x="918" y="619" type="line" smooth="yes"/>
      <point x="877" y="363"/>
      <point x="828" y="140"/>
    </contour>
    <contour>
      <point x="516" y="-22" type="curve" smooth="yes"/>
      <point x="999" y="-22"/>
      <point x="1075" y="335"/>
      <point x="1122" y="636" type="curve" smooth="yes"/>
      <point x="1147" y="790" type="line" smooth="yes"/>
      <point x="1195" y="1096"/>
      <point x="1237" y="1468"/>
      <point x="752" y="1468" type="curve" smooth="yes"/>
      <point x="267" y="1468"/>
      <point x="191" y="1096"/>
      <point x="143" y="790" type="curve" smooth="yes"/>
      <point x="118" y="636" type="line" smooth="yes"/>
      <point x="71" y="335"/>
      <point x="33" y="-22"/>
    </contour>
  </outline>
</glyph>
<glyph name="one" format="1">
  <advance width="1250"/>
  <unicode hex="0031"/>
  <outline>
    <contour>
      <point x="91" y="0" type="line"/>
      <point x="1047" y="0" type="line"/>
      <point x="1072" y="155" type="line"/>
      <point x="718" y="155" type="line"/>
      <point x="923" y="1446" type="line"/>
      <point x="759" y="1446" type="line"/>
      <point x="322" y="1396" type="line"/>
      <point x="314" y="1237" type="line"/>
      <point x="695" y="1277" type="line"/>
      <point x="517" y="155" type="line"/>
      <point x="116" y="155" type="line"/>
    </contour>
  </outline>
</glyph>
<glyph name="three" format="1">
  <advance width="1250"/>
  <unicode hex="0033"/>
  <outline>
    <contour>
      <point x="561" y="-22" type="curve" smooth="yes"/>
      <point x="845" y="-22"/>
      <point x="1031" y="122"/>
      <point x="1075" y="398" type="curve" smooth="yes"/>
      <point x="1113" y="642"/>
      <point x="1032" y="734"/>
      <point x="872" y="768" type="curve"/>
      <point x="1044" y="795"/>
      <point x="1125" y="901"/>
      <point x="1155" y="1091" type="curve" smooth="yes"/>
      <point x="1197" y="1354"/>
      <point x="1042" y="1468"/>
      <point x="793" y="1468" type="curve" smooth="yes"/>
      <point x="536" y="1468"/>
      <point x="324" y="1393"/>
      <point x="266" y="1025" type="curve"/>
      <point x="458" y="1025" type="line"/>
      <point x="497" y="1273"/>
      <point x="590" y="1306"/>
      <point x="768" y="1306" type="curve" smooth="yes"/>
      <point x="940" y="1306"/>
      <point x="988" y="1224"/>
      <point x="967" y="1088" type="curve" smooth="yes"/>
      <point x="941" y="924"/>
      <point x="915" y="840"/>
      <point x="606" y="840" type="curve"/>
      <point x="582" y="691" type="line"/>
      <point x="882" y="691"/>
      <point x="919" y="622"/>
      <point x="884" y="399" type="curve" smooth="yes"/>
      <point x="857" y="230"/>
      <point x="771" y="140"/>
      <point x="598" y="140" type="curve" smooth="yes"/>
      <point x="399" y="140"/>
      <point x="331" y="189"/>
      <point x="354" y="431" type="curve"/>
      <point x="162" y="431" type="line"/>
      <point x="142" y="91"/>
      <point x="239" y="-22"/>
    </contour>
  </outline>
</glyph>
<glyph name="eight" format="1">
  <advance width="1250"/>
  <unicode hex="0038"/>
  <outline>
    <contour>
      <point x="503" y="-22" type="curve" smooth="yes"/>
      <point x="803" y="-22"/>
      <point x="1020" y="103"/>
      <point x="1062" y="367" type="curve" smooth="yes"/>
      <point x="1095" y="580"/>
      <point x="966" y="703"/>
      <point x="819" y="773" type="curve"/>
      <point x="981" y="842"/>
      <point x="1122" y="922"/>
      <point x="1151" y="1108" type="curve" smooth="yes"/>
      <point x="1193" y="1375"/>
      <point x="996" y="1468"/>
      <point x="744" y="1468" type="curve" smooth="yes"/>
      <point x="489" y="1468"/>
      <point x="263" y="1375"/>
      <point x="221" y="1108" type="curve" smooth="yes"/>
      <point x="192" y="922"/>
      <point x="306" y="842"/>
      <point x="446" y="773" type="curve"/>
      <point x="277" y="703"/>
      <point x="109" y="580"/>
      <point x="76" y="367" type="curve" smooth="yes"/>
      <point x="34" y="103"/>
      <point x="209" y="-22"/>
    </contour>
    <contour>
      <point x="534" y="140" type="curve" smooth="yes"/>
      <point x="343" y="140"/>
      <point x="240" y="199"/>
      <point x="267" y="372" type="curve" smooth="yes"/>
      <point x="292" y="529"/>
      <point x="444" y="610"/>
      <point x="620" y="689" type="curve"/>
      <point x="769" y="610"/>
      <point x="896" y="529"/>
      <point x="871" y="372" type="curve" smooth="yes"/>
      <point x="844" y="199"/>
      <point x="722" y="140"/>
    </contour>
    <contour>
      <point x="644" y="846" type="curve"/>
      <point x="510" y="916"/>
      <point x="395" y="977"/>
      <point x="416" y="1107" type="curve" smooth="yes"/>
      <point x="435" y="1230"/>
      <point x="517" y="1306"/>
      <point x="718" y="1306" type="curve" smooth="yes"/>
      <point x="917" y="1306"/>
      <point x="975" y="1230"/>
      <point x="956" y="1107" type="curve" smooth="yes"/>
      <point x="935" y="977"/>
      <point x="802" y="917"/>
    </contour>
  </outline>
</glyph>
<glyph name="N" format="1">
  <advance width="1594"/>
  <unicode hex="004E"/>
  <outline>
    <contour>
      <point x="682" y="0" type="move" name="bot"/>
    </contour>
    <contour>
      <point x="912" y="1446" type="move" name="top"/>
    </contour>
    <contour>
      <point x="103" y="0" type="line"/>
      <point x="280" y="0" type="line"/>
      <point x="455" y="1104" type="line"/>
      <point x="1082" y="0" type="line"/>
      <point x="1261" y="0" type="line"/>
      <point x="1491" y="1446" type="line"/>
      <point x="1314" y="1446" type="line"/>
      <point x="1130" y="290" type="line"/>
      <point x="486" y="1446" type="line"/>
      <point x="333" y="1446" type="line"/>
    </contour>
  </outline>
</glyph>
<glyph name="U" format="1">
  <advance width="1538"/>
  <unicode hex="0055"/>
  <outline>
    <contour>
      <point x="728" y="0" type="move" name="ogonek"/>
    </contour>
    <contour>
      <point x="895" y="1446" type="move" name="top"/>
    </contour>
    <contour>
      <point x="663" y="-22" type="curve" smooth="yes"/>
      <point x="1116" y="-22"/>
      <point x="1258" y="205"/>
      <point x="1300" y="473" type="curve" smooth="yes"/>
      <point x="1454" y="1446" type="line"/>
      <point x="1252" y="1446" type="line"/>
      <point x="1095" y="452" type="line" smooth="yes"/>
      <point x="1053" y="186"/>
      <point x="891" y="140"/>
      <point x="688" y="140" type="curve" smooth="yes"/>
      <point x="487" y="140"/>
      <point x="319" y="186"/>
      <point x="361" y="452" type="curve" smooth="yes"/>
      <point x="518" y="1446" type="line"/>
      <point x="316" y="1446" type="line"/>
      <point x="162" y="473" type="line" smooth="yes"/>
      <point x="119" y="202"/>
      <point x="190" y="-22"/>
    </contour>
  </outline>
</glyph>
<glyph name="V" format="1">
  <advance width="1386"/>
  <unicode hex="0056"/>
  <outline>
    <contour>
      <point x="487" y="0" type="line"/>
      <point x="664" y="0" type="line"/>
      <point x="1415" y="1446" type="line"/>
      <point x="1206" y="1446" type="line"/>
      <point x="624" y="294" type="line"/>
      <point x="408" y="1446" type="line"/>
      <point x="201" y="1446" type="line"/>
    </contour>
  </outline>
</glyph>
<glyph name="X" format="1">
  <advance width="1336"/>
  <unicode hex="0058"/>
  <outline>
    <contour>
      <point x="-21" y="0" type="line"/>
      <point x="191" y="0" type="line"/>
      <point x="642" y="568" type="line"/>
      <point x="909" y="0" type="line"/>
      <point x="1127" y="0" type="line"/>
      <point x="775" y="734" type="line"/>
      <point x="1342" y="1446" type="line"/>
      <point x="1125" y="1446" type="line"/>
      <point x="697" y="898" type="line"/>
      <point x="434" y="1446" type="line"/>
      <point x="231" y="1446" type="line"/>
      <point x="566" y="731" type="line"/>
    </contour>
  </outline>
</glyph>
<glyph name="k" format="1">
  <advance width="1145"/>
  <unicode hex="006B"/>
  <outline>
    <contour>
      <point x="507" y="0" type="move" name="bot"/>
    </contour>
    <contour>
      <point x="663" y="1060" type="move" name="top"/>
    </contour>
    <contour>
      <point x="67" y="0" type="line"/>
      <point x="255" y="0" type="line"/>
      <point x="308" y="334" type="line"/>
      <point x="492" y="492" type="line"/>
      <point x="794" y="0" type="line"/>
      <point x="1011" y="0" type="line"/>
      <point x="631" y="594" type="line"/>
      <point x="1136" y="1060" type="line"/>
      <point x="930" y="1060" type="line"/>
      <point x="338" y="524" type="line"/>
      <point x="493" y="1506" type="line"/>
      <point x="305" y="1506" type="line"/>
    </contour>
  </outline>
</glyph>
<glyph name="o" format="1">
  <advance width="1174"/>
  <unicode hex="006F"/>
  <outline>
    <contour>
      <point x="510" y="0" type="move" name="bot"/>
    </contour>
    <contour>
      <point x="551" y="0" type="move" name="ogonek"/>
    </contour>
    <contour>
      <point x="669" y="1060" type="move" name="top"/>
    </contour>
    <contour>
      <point x="523" y="122" type="curve" smooth="yes"/>
      <point x="373" y="122"/>
      <point x="279" y="168"/>
      <point x="300" y="299" type="curve" smooth="yes"/>
      <point x="372" y="758" type="line" smooth="yes"/>
      <point x="393" y="889"/>
      <point x="501" y="936"/>
      <point x="651" y="936" type="curve" smooth="yes"/>
      <point x="798" y="936"/>
      <point x="895" y="889"/>
      <point x="874" y="758" type="curve" smooth="yes"/>
      <point x="802" y="299" type="line" smooth="yes"/>
      <point x="781" y="168"/>
      <point x="670" y="122"/>
    </contour>
    <contour>
      <point x="500" y="-22" type="curve" smooth="yes"/>
      <point x="816" y="-22"/>
      <point x="961" y="119"/>
      <point x="992" y="315" type="curve" smooth="yes"/>
      <point x="1060" y="742" type="line" smooth="yes"/>
      <point x="1091" y="938"/>
      <point x="990" y="1080"/>
      <point x="674" y="1080" type="curve" smooth="yes"/>
      <point x="355" y="1080"/>
      <point x="213" y="938"/>
      <point x="182" y="742" type="curve" smooth="yes"/>
      <point x="114" y="315" type="line" smooth="yes"/>
      <point x="83" y="119"/>
      <point x="181" y="-22"/>
    </contour>
  </outline>
</glyph>
<glyph name="q" format="1">
  <advance width="1200"/>
  <unicode hex="0071"/>
  <outline>
    <contour>
      <point x="708" y="-408" type="line"/>
      <point x="896" y="-408" type="line"/>
      <point x="1129" y="1060" type="line"/>
      <point x="941" y="1060" type="line"/>
      <point x="927" y="975" type="line"/>
      <point x="905" y="1025"/>
      <point x="786" y="1080"/>
      <point x="678" y="1080" type="curve" smooth="yes"/>
      <point x="402" y="1080"/>
      <point x="244" y="941"/>
      <point x="210" y="728" type="curve" smooth="yes"/>
      <point x="145" y="314" type="line" smooth="yes"/>
      <point x="112" y="110"/>
      <point x="245" y="-22"/>
      <point x="516" y="-22" type="curve" smooth="yes"/>
      <point x="589" y="-22"/>
      <point x="707" y="-3"/>
      <point x="780" y="47" type="curve"/>
    </contour>
    <contour>
      <point x="551" y="122" type="curve" smooth="yes"/>
      <point x="413" y="122"/>
      <point x="308" y="157"/>
      <point x="328" y="284" type="curve" smooth="yes"/>
      <point x="401" y="748" type="line" smooth="yes"/>
      <point x="422" y="878"/>
      <point x="535" y="936"/>
      <point x="683" y="936" type="curve" smooth="yes"/>
      <point x="850" y="936"/>
      <point x="910" y="869"/>
      <point x="901" y="810" type="curve" smooth="yes"/>
      <point x="805" y="201" type="line"/>
      <point x="791" y="180"/>
      <point x="691" y="122"/>
    </contour>
  </outline>
</glyph>
<glyph name="z" format="1">
  <advance width="951"/>
  <unicode hex="007A"/>
  <outline>
    <contour>
      <point x="435" y="0" type="move" name="bot"/>
    </contour>
    <contour>
      <point x="594" y="1060" type="move" name="top"/>
    </contour>
    <contour>
      <point x="52" y="0" type="line"/>
      <point x="766" y="0" type="line"/>
      <point x="787" y="132" type="line"/>
      <point x="271" y="132" type="line"/>
      <point x="905" y="935" type="line"/>
      <point x="925" y="1060" type="line"/>
      <point x="238" y="1060" type="line"/>
      <point x="216" y="924" type="line"/>
      <point x="699" y="924" type="line"/>
      <point x="72" y="126" type="line"/>
    </contour>
  </outline>
</glyph>
<glyph name="braceleft" format="1">
  <advance width="952"/>
  <unicode hex="007B"/>
  <outline>
    <contour>
      <point x="731" y="-207" type="curve"/>
      <point x="755" y="-56" type="line"/>
      <point x="473" y="-56"/>
      <point x="476" y="2"/>
      <point x="513" y="235" type="curve"/>
      <point x="523" y="297" type="line"/>
      <point x="550" y="469"/>
      <point x="543" y="613"/>
      <point x="475" y="649" type="curve"/>
      <point x="555" y="686"/>
      <point x="608" y="830"/>
      <point x="635" y="1002" type="curve"/>
      <point x="645" y="1064" type="line"/>
      <point x="682" y="1297"/>
      <point x="697" y="1355"/>
      <point x="979" y="1355" type="curve"/>
      <point x="1003" y="1506" type="line"/>
      <point x="528" y="1506"/>
      <point x="497" y="1341"/>
      <point x="450" y="1046" type="curve"/>
      <point x="443" y="1005" type="line"/>
      <point x="394" y="691"/>
      <point x="327" y="725"/>
      <point x="171" y="725" type="curve"/>
      <point x="147" y="574" type="line"/>
      <point x="303" y="574"/>
      <point x="380" y="608"/>
      <point x="331" y="294" type="curve"/>
      <point x="324" y="253" type="line"/>
      <point x="277" y="-42"/>
      <point x="256" y="-207"/>
    </contour>
  </outline>
</glyph>
<glyph name="cent" format="1">
  <advance width="1110"/>
  <unicode hex="00A2"/>
  <outline>
    <contour>
      <point x="616" y="1013" type="line"/>
      <point x="719" y="1013" type="line"/>
      <point x="760" y="1277" type="line"/>
      <point x="657" y="1277" type="line"/>
    </contour>
    <contour>
      <point x="423" y="-205" type="line"/>
      <point x="526" y="-205" type="line"/>
      <point x="567" y="59" type="line"/>
      <point x="464" y="59" type="line"/>
    </contour>
    <component base="c"/>
  </outline>
</glyph>
<glyph name="paragraph" format="1">
  <advance width="1250"/>
  <unicode hex="00B6"/>
  <outline>
    <contour>
      <point x="405" y="-210" type="line"/>
      <point x="555" y="-210" type="line"/>
      <point x="800" y="1338" type="line"/>
      <point x="939" y="1338" type="line"/>
      <point x="694" y="-210" type="line"/>
      <point x="830" y="-210" type="line"/>
      <point x="1092" y="1446" type="line"/>
      <point x="703" y="1446" type="line" smooth="yes"/>
      <point x="509" y="1446"/>
      <point x="287" y="1372"/>
      <point x="253" y="1156" type="curve" smooth="yes"/>
      <point x="225" y="976"/>
      <point x="405" y="874"/>
      <point x="576" y="870" type="curve"/>
    </contour>
  </outline>
</glyph>
<glyph name="guillemotright" format="1">
  <advance width="1054"/>
  <unicode hex="00BB"/>
  <outline>
    <contour>
      <point x="200" y="80" type="line"/>
      <point x="544" y="530" type="line"/>
      <point x="335" y="980" type="line"/>
      <point x="186" y="910" type="line"/>
      <point x="331" y="530" type="line"/>
      <point x="66" y="150" type="line"/>
    </contour>
    <contour>
      <point x="614" y="80" type="line"/>
      <point x="958" y="530" type="line"/>
      <point x="749" y="980" type="line"/>
      <point x="598" y="910" type="line"/>
      <point x="745" y="530" type="line"/>
      <point x="478" y="150" type="line"/>
    </contour>
  </outline>
</glyph>
<glyph name="AE" format="1">
  <advance width="1686"/>
  <unicode hex="00C6"/>
  <outline>
    <contour>
      <point x="1132" y="1446" type="move" name="top"/>
    </contour>
    <contour>
      <point x="-16" y="3" type="line"/>
      <point x="187" y="0" type="line"/>
      <point x="305" y="282" type="line"/>
      <point x="804" y="282" type="line"/>
      <point x="759" y="0" type="line"/>
      <point x="1444" y="0" type="line"/>
      <point x="1468" y="150" type="line"/>
      <point x="974" y="150" type="line"/>
      <point x="1056" y="664" type="line"/>
      <point x="1480" y="664" type="line"/>
      <point x="1503" y="814" type="line"/>
      <point x="1079" y="814" type="line"/>
      <point x="1156" y="1296" type="line"/>
      <point x="1641" y="1296" type="line"/>
      <point x="1665" y="1446" type="line"/>
      <point x="607" y="1446" type="line"/>
    </contour>
    <contour>
      <point x="363" y="417" type="line"/>
      <point x="723" y="1296" type="line"/>
      <point x="965" y="1296" type="line"/>
      <point x="826" y="417" type="line"/>
    </contour>
  </outline>
</glyph>
<glyph name="ae" format="1">
  <advance width="1741"/>
  <unicode hex="00E6"/>
  <outline>
    <contour>
      <point x="980" y="1060" type="move" name="top"/>
    </contour>
    <contour>
      <point x="382" y="-22" type="curve" smooth="yes"/>
      <point x="619" y="-22"/>
      <point x="734" y="68"/>
      <point x="802" y="178" type="curve"/>
      <point x="828" y="75"/>
      <point x="909" y="-22"/>
      <point x="1102" y="-22" type="curve" smooth="yes"/>
      <point x="1392" y="-22"/>
      <point x="1508" y="60"/>
      <point x="1570" y="318" type="curve"/>
      <point x="1400" y="318" type="line"/>
      <point x="1358" y="135"/>
      <point x="1290" y="121"/>
      <point x="1124" y="121" type="curve" smooth="yes"/>
      <point x="977" y="121"/>
      <point x="915" y="186"/>
      <point x="937" y="328" type="curve" smooth="yes"/>
      <point x="966" y="511" type="line"/>
      <point x="1606" y="511" type="line"/>
      <point x="1645" y="758" type="line" smooth="yes"/>
      <point x="1677" y="959"/>
      <point x="1560" y="1080"/>
      <point x="1284" y="1080" type="curve" smooth="yes"/>
      <point x="1139" y="1080"/>
      <point x="1029" y="1037"/>
      <point x="952" y="939" type="curve"/>
      <point x="930" y="1035"/>
      <point x="815" y="1080"/>
      <point x="677" y="1080" type="curve" smooth="yes"/>
      <point x="399" y="1080"/>
      <point x="245" y="989"/>
      <point x="208" y="759" type="curve" smooth="yes"/>
      <point x="204" y="731" type="line"/>
      <point x="385" y="731" type="line"/>
      <point x="389" y="758" type="line" smooth="yes"/>
      <point x="405" y="857"/>
      <point x="430" y="936"/>
      <point x="643" y="936" type="curve" smooth="yes"/>
      <point x="835" y="936"/>
      <point x="833" y="850"/>
      <point x="821" y="773" type="curve" smooth="yes"/>
      <point x="804" y="667"/>
      <point x="769" y="626"/>
      <point x="536" y="575" type="curve" smooth="yes"/>
      <point x="202" y="502"/>
      <point x="114" y="423"/>
      <point x="92" y="283" type="curve" smooth="yes"/>
      <point x="66" y="120"/>
      <point x="157" y="-22"/>
    </contour>
    <contour>
      <point x="437" y="120" type="curve" smooth="yes"/>
      <point x="327" y="120"/>
      <point x="254" y="165"/>
      <point x="273" y="284" type="curve" smooth="yes"/>
      <point x="288" y="378"/>
      <point x="391" y="407"/>
      <point x="549" y="449" type="curve" smooth="yes"/>
      <point x="712" y="492"/>
      <point x="783" y="544"/>
      <point x="787" y="564" type="curve"/>
      <point x="741" y="279" type="line"/>
      <point x="696" y="181"/>
      <point x="550" y="120"/>
    </contour>
    <contour>
      <point x="985" y="633" type="line"/>
      <point x="1006" y="760" type="line" smooth="yes"/>
      <point x="1026" y="891"/>
      <point x="1111" y="938"/>
      <point x="1261" y="938" type="curve" smooth="yes"/>
      <point x="1406" y="938"/>
      <point x="1497" y="906"/>
      <point x="1476" y="778" type="curve" smooth="yes"/>
      <point x="1453" y="633" type="line"/>
    </contour>
  </outline>
</glyph>
<glyph name="Hbar" format="1">
  <advance width="1536"/>
  <unicode hex="0126"/>
  <outline>
    <contour>
      <point x="197" y="1060" type="line"/>
      <point x="1445" y="1060" type="line"/>
      <point x="1465" y="1184" type="line"/>
      <point x="217" y="1184" type="line"/>
    </contour>
    <component base="H"/>
  </outline>
</glyph>
<glyph name="Eng" format="1">
  <advance width="1582"/>
  <unicode hex="014A"/>
  <outline>
    <contour>
      <point x="677" y="-373" type="line"/>
      <point x="1008" y="-373"/>
      <point x="1244" y="-259"/>
      <point x="1304" y="122" type="curve" smooth="yes"/>
      <point x="1514" y="1446" type="line"/>
      <point x="1337" y="1446" type="line"/>
      <point x="1182" y="470" type="line"/>
      <point x="509" y="1446" type="line"/>
      <point x="356" y="1446" type="line"/>
      <point x="127" y="0" type="line"/>
      <point x="304" y="0" type="line"/>
      <point x="479" y="1104" type="line"/>
      <point x="1127" y="190" type="line"/>
      <point x="1115" y="115" type="line" smooth="yes"/>
      <point x="1066" y="-197"/>
      <point x="919" y="-210"/>
      <point x="671" y="-232" type="curve"/>
    </contour>
  </outline>
</glyph>
<glyph name="eng" format="1">
  <advance width="1226"/>
  <unicode hex="014B"/>
  <outline>
    <contour>
      <point x="530" y="-316" type="line"/>
      <point x="876" y="-316"/>
      <point x="964" y="-162"/>
      <point x="1024" y="219" type="curve" smooth="yes"/>
      <point x="1111" y="770" type="line" smooth="yes"/>
      <point x="1138" y="938"/>
      <point x="1060" y="1080"/>
      <point x="799" y="1080" type="curve" smooth="yes"/>
      <point x="645" y="1080"/>
      <point x="538" y="1029"/>
      <point x="465" y="957" type="curve"/>
      <point x="481" y="1060" type="line"/>
      <point x="293" y="1060" type="line"/>
      <point x="125" y="0" type="line"/>
      <point x="313" y="0" type="line"/>
      <point x="433" y="755" type="line" smooth="yes"/>
      <point x="449" y="857"/>
      <point x="544" y="936"/>
      <point x="728" y="936" type="curve" smooth="yes"/>
      <point x="859" y="936"/>
      <point x="942" y="886"/>
      <point x="925" y="781" type="curve" smooth="yes"/>
      <point x="835" y="212" type="line" smooth="yes"/>
      <point x="786" y="-100"/>
      <point x="773" y="-175"/>
      <point x="525" y="-175" type="curve"/>
    </contour>
  </outline>
</glyph>
<glyph name="circumflex" format="1">
  <advance width="512"/>
  <unicode hex="02C6"/>
  <outline>
    <contour>
      <point x="199" y="1060" type="move" name="_top"/>
    </contour>
    <contour>
      <point x="-51" y="1287" type="line"/>
      <point x="129" y="1287" type="line"/>
      <point x="264" y="1431" type="line"/>
      <point x="345" y="1287" type="line"/>
      <point x="521" y="1287" type="line"/>
      <point x="357" y="1553" type="line"/>
      <point x="207" y="1553" type="line"/>
    </contour>
  </outline>
</glyph>
<glyph name="caron" format="1">
  <advance width="512"/>
  <unicode hex="02C7"/>
  <outline>
    <contour>
      <point x="199" y="1060" type="move" name="_top"/>
    </contour>
    <contour>
      <point x="315" y="1287" type="line"/>
      <point x="563" y="1553" type="line"/>
      <point x="387" y="1553" type="line"/>
      <point x="260" y="1409" type="line"/>
      <point x="171" y="1553" type="line"/>
      <point x="-9" y="1553" type="line"/>
      <point x="165" y="1287" type="line"/>
    </contour>
  </outline>
</glyph>
<glyph name="dotaccent" format="1">
  <advance width="512"/>
  <unicode hex="02D9"/>
  <outline>
    <contour>
      <point x="197" y="1060" type="move" name="_top"/>
    </contour>
    <contour>
      <point x="133" y="1327" type="line"/>
      <point x="326" y="1327" type="line"/>
      <point x="358" y="1535" type="line"/>
      <point x="165" y="1535" type="line"/>
    </contour>
  </outline>
</glyph>
<glyph name="ogonek" format="1">
  <advance width="513"/>
  <unicode hex="02DB"/>
  <outline>
    <contour>
      <point x="359" y="0" type="move" name="_ogonek"/>
    </contour>
    <contour>
      <point x="369" y="-476" type="curve"/>
      <point x="384" y="-379" type="line"/>
      <point x="257" y="-379"/>
      <point x="224" y="-320"/>
      <point x="236" y="-245" type="curve" smooth="yes"/>
      <point x="250" y="-160"/>
      <point x="319" y="-54"/>
      <point x="396" y="10" type="curve"/>
      <point x="334" y="10" type="line"/>
      <point x="187" y="-100"/>
      <point x="119" y="-201"/>
      <point x="106" y="-281" type="curve" smooth="yes"/>
      <point x="88" y="-400"/>
      <point x="190" y="-476"/>
    </contour>
  </outline>
</glyph>
<glyph name="daggerdbl" format="1">
  <advance width="938"/>
  <unicode hex="2021"/>
  <outline>
    <contour>
      <point x="257" y="0" type="line"/>
      <point x="445" y="0" type="line"/>
      <point x="510" y="409" type="line"/>
      <point x="776" y="409" type="line"/>
      <point x="797" y="538" type="line"/>
      <point x="531" y="538" type="line"/>
      <point x="593" y="931" type="line"/>
      <point x="859" y="931" type="line"/>
      <point x="879" y="1060" type="line"/>
      <point x="613" y="1060" type="line"/>
      <point x="675" y="1446" type="line"/>
      <point x="487" y="1446" type="line"/>
      <point x="425" y="1060" type="line"/>
      <point x="165" y="1060" type="line"/>
      <point x="145" y="931" type="line"/>
      <point x="405" y="931" type="line"/>
      <point x="343" y="538" type="line"/>
      <point x="83" y="538" type="line"/>
      <point x="62" y="409" type="line"/>
      <point x="322" y="409" type="line"/>
    </contour>
  </outline>
</glyph>
<glyph name="bullet" format="1">
  <advance width="975"/>
  <unicode hex="2022"/>
  <outline>
    <contour>
      <point x="438" y="298" type="curve" smooth="yes"/>
      <point x="665" y="298"/>
      <point x="764" y="405"/>
      <point x="795" y="599" type="curve" smooth="yes"/>
      <point x="826" y="795"/>
      <point x="762" y="901"/>
      <point x="535" y="901" type="curve" smooth="yes"/>
      <point x="310" y="901"/>
      <point x="211" y="795"/>
      <point x="180" y="599" type="curve" smooth="yes"/>
      <point x="149" y="404"/>
      <point x="212" y="298"/>
    </contour>
  </outline>
</glyph>
<glyph name="Euro" format="1">
  <advance width="1460"/>
  <unicode hex="20AC"/>
  <outline>
    <contour>
      <point x="758" y="819" type="line"/>
      <point x="779" y="953" type="line"/>
      <point x="37" y="953" type="line"/>
      <point x="16" y="819" type="line"/>
    </contour>
    <contour>
      <point x="708" y="505" type="line"/>
      <point x="730" y="639" type="line"/>
      <point x="-12" y="639" type="line"/>
      <point x="-34" y="505" type="line"/>
    </contour>
    <component base="C"/>
  </outline>
</glyph>
